<svg xmlns="http://www.w3.org/2000/svg" width="35" height="41.84" viewBox="0 0 35 41.84"><defs><style>.a{fill:#29bdef;}</style></defs><g transform="translate(7.691)"><path class="a" d="M391.1,24.312a21.142,21.142,0,0,1-3.211,1.166,23.413,23.413,0,0,1-6.5.774,30.276,30.276,0,0,1-3.752-.242,19.634,19.634,0,0,1-3.752-.749,16.962,16.962,0,0,1-2.354-.939c-.036-.98-.026-1.888.01-2.714a7.706,7.706,0,0,1,.062-.836,5.389,5.389,0,0,1,1.146-2.581A5.32,5.32,0,0,1,374.4,16.88a7.325,7.325,0,0,1,.682-.31,9.094,9.094,0,0,1,1.559-.459,28.812,28.812,0,0,1,4.262-.362,29.74,29.74,0,0,1,4.026.16,9.186,9.186,0,0,1,2.436.557,6.679,6.679,0,0,1,1.858,1.074,5.015,5.015,0,0,1,1.032,1.135,5.345,5.345,0,0,1,.64,1.445,9.3,9.3,0,0,1,.228,2.54C391.126,23.138,391.122,23.693,391.1,24.312Z" transform="translate(-371.505 -15.745)"/></g><g transform="translate(0 9.27)"><path class="a" d="M393.538,47.147a2.137,2.137,0,0,0-1.223-1.672,3,3,0,0,0-2.013-.217,3.134,3.134,0,0,0-.821.341,3.2,3.2,0,0,0-.79.6,3.738,3.738,0,0,0-.635.96c-.137.265-.118.28-.34.743-.194.4-.354.7-.387.759a9.912,9.912,0,0,1-.687,1.115,6.747,6.747,0,0,1-.717.826,2.767,2.767,0,0,1-.284.232,1.173,1.173,0,0,1-.31.181.874.874,0,0,1-.557-.031,1.4,1.4,0,0,1-.759-.882,1.624,1.624,0,0,1-.077-.356,1.664,1.664,0,0,1,.062-.619,2.085,2.085,0,0,1,.31-.651c.068-.1.145-.2.247-.325.04-.052.133-.165.248-.294.228-.258.422-.44.465-.48a5.729,5.729,0,0,0,.867-1.285,6.611,6.611,0,0,0,.62-3.035,7.528,7.528,0,0,0-.526-2.57c-.063-.165-.126-.316-.186-.449a.179.179,0,0,1,.207-.247,5.522,5.522,0,0,0,2.193.123,4.462,4.462,0,0,0,1.471-.48,3.964,3.964,0,0,0,.728-.526,3.8,3.8,0,0,0,.294-.31,7.715,7.715,0,0,0,1.641-2.6,4.254,4.254,0,0,0,.2-.837,3.525,3.525,0,0,0-.078-1.254,2.778,2.778,0,0,0-.34-.836,2.9,2.9,0,0,0-.573-.651,4.3,4.3,0,0,0-1.037-.681,4.183,4.183,0,0,0-1.161-.356,4.673,4.673,0,0,0-1.084-.015,8.015,8.015,0,0,0-1.533.232,6.846,6.846,0,0,0-.991.341,29.487,29.487,0,0,1-3.887,1.177,24.247,24.247,0,0,1-4.846.65c-.489.012-.9.007-1.187,0v0c-.289.007-.7.012-1.187,0a24.231,24.231,0,0,1-4.846-.65,29.482,29.482,0,0,1-3.887-1.177,7.135,7.135,0,0,0-.991-.34,7.962,7.962,0,0,0-1.533-.232,4.675,4.675,0,0,0-1.084.015,4.343,4.343,0,0,0-2.2,1.038,2.877,2.877,0,0,0-.573.65,2.779,2.779,0,0,0-.341.836,3.526,3.526,0,0,0-.078,1.254,4.17,4.17,0,0,0,.2.836,7.716,7.716,0,0,0,1.641,2.6,3.5,3.5,0,0,0,.294.31,3.881,3.881,0,0,0,.728.526,4.422,4.422,0,0,0,1.471.48,5.525,5.525,0,0,0,2.193-.123.178.178,0,0,1,.207.247c-.06.134-.123.284-.186.449a7.531,7.531,0,0,0-.526,2.571,6.6,6.6,0,0,0,.619,3.035,5.569,5.569,0,0,0,.867,1.285c.043.042.238.222.465.48.113.129.206.244.248.294.1.127.177.222.247.325a2.12,2.12,0,0,1,.31.651,1.66,1.66,0,0,1,.062.619,1.612,1.612,0,0,1-.077.356,1.4,1.4,0,0,1-.759.883.864.864,0,0,1-.557.031,1.171,1.171,0,0,1-.31-.181,2.521,2.521,0,0,1-.284-.232,6.733,6.733,0,0,1-.717-.826,9.887,9.887,0,0,1-.687-1.115c-.033-.058-.193-.354-.387-.759-.222-.463-.2-.478-.34-.743a3.813,3.813,0,0,0-.635-.96,3.633,3.633,0,0,0-1.61-.944,3,3,0,0,0-2.013.216,2.247,2.247,0,0,0-.727,3.453,2.286,2.286,0,0,0,1.44.7l.086.008c.062.172.11.311.139.4.16.494.188.695.363,1.238.031.1.056.175.108.327.122.36.221.635.241.688a10.4,10.4,0,0,0,.688,1.471,8.576,8.576,0,0,0,1.192,1.595,5.223,5.223,0,0,0,1.223,1.037,4.9,4.9,0,0,0,1.517.557,6.439,6.439,0,0,0,.686.112.179.179,0,0,1,.038.348l-.012,0a22.72,22.72,0,0,0-2.446.9,5.873,5.873,0,0,0-1.193.682,3.829,3.829,0,0,0-.867.9,3.168,3.168,0,0,0-.557,1.332,2.314,2.314,0,0,0,.093,1.27,2.183,2.183,0,0,0,.65.882,2.119,2.119,0,0,0,1.068.511,1.769,1.769,0,0,0,1.378-.294s.146-.167.433-.5a1.917,1.917,0,0,1,.449-.434,1.283,1.283,0,0,1,.465-.17,2.992,2.992,0,0,1,.913.124c.052.009.19.026.465.062a9.867,9.867,0,0,0,2.059.078,8.128,8.128,0,0,0,1.3-.217,8.562,8.562,0,0,0,2.245-.836,7.257,7.257,0,0,0,1.44-1.007,7.043,7.043,0,0,0,1.222-1.447.179.179,0,0,1,.3,0,7.051,7.051,0,0,0,1.222,1.449,7.2,7.2,0,0,0,1.44,1.007,8.577,8.577,0,0,0,2.245.836,8.122,8.122,0,0,0,1.3.217,9.995,9.995,0,0,0,2.059-.078c.275-.036.413-.053.465-.062a2.98,2.98,0,0,1,.913-.124,1.257,1.257,0,0,1,.465.17,1.917,1.917,0,0,1,.449.434c.287.329.43.494.433.5a1.771,1.771,0,0,0,1.378.294,2.134,2.134,0,0,0,1.069-.511,2.206,2.206,0,0,0,.651-.882,2.338,2.338,0,0,0,.093-1.27,3.161,3.161,0,0,0-.557-1.332,3.868,3.868,0,0,0-.867-.9,5.868,5.868,0,0,0-1.192-.682,22.669,22.669,0,0,0-2.447-.9l-.012,0a.179.179,0,0,1,.038-.348,6.436,6.436,0,0,0,.686-.112,4.912,4.912,0,0,0,1.517-.557,5.287,5.287,0,0,0,1.224-1.038,8.617,8.617,0,0,0,1.192-1.594,10.393,10.393,0,0,0,.688-1.471c.019-.053.119-.329.241-.69.05-.15.076-.225.108-.325.175-.544.2-.745.363-1.239.029-.089.077-.229.14-.4.02,0,.05,0,.086-.007a2.3,2.3,0,0,0,1.44-.7A2.226,2.226,0,0,0,393.538,47.147Zm-17.47,3.6a3.862,3.862,0,0,1-3.405-2.048.332.332,0,0,1,.408-.464,9.067,9.067,0,0,0,5.985,0,.332.332,0,0,1,.408.463A3.862,3.862,0,0,1,376.067,50.745Z" transform="translate(-358.562 -31.344)"/></g></svg>