<svg xmlns="http://www.w3.org/2000/svg" viewBox="0 0 245.22 287.09"><defs><style>.cls-1{fill:#29bdef;}</style></defs><title>imagotype</title><g id="Capa_2" data-name="Capa 2"><path class="cls-1" d="M77.11,73.75c8.75,2.76,15.66,3.66,23,4.58a185.68,185.68,0,0,0,23,1.49c9.16,0,23-.13,39.81-4.74a130.22,130.22,0,0,0,19.65-7.14c.14-3.79.16-7.19.12-10.11-.09-7.44-.16-11.25-1.39-15.54a32.94,32.94,0,0,0-3.91-8.85A30.92,30.92,0,0,0,171,26.49a41.35,41.35,0,0,0-11.37-6.57c-4.22-1.66-8.31-2.61-14.92-3.41-2.51-.31-10.2-1.17-24.64-1-1.24,0-16.28.25-26.08,2.21a57,57,0,0,0-9.55,2.81,45.73,45.73,0,0,0-4.17,1.9,32.51,32.51,0,0,0-10.11,8,33.07,33.07,0,0,0-7,15.8,47.61,47.61,0,0,0-.38,5.11C62.54,56.44,62.49,62,62.71,68A103.11,103.11,0,0,0,77.11,73.75Z"/><path class="cls-1" d="M229.57,169a13.76,13.76,0,0,0-3.79-7.67,13.43,13.43,0,0,0-3.7-2.56,18.41,18.41,0,0,0-12.32-1.33,19.09,19.09,0,0,0-5,2.09,19.89,19.89,0,0,0-4.84,3.69,23,23,0,0,0-3.88,5.88c-.84,1.62-.73,1.72-2.09,4.55-1.19,2.47-2.16,4.28-2.36,4.64a61.51,61.51,0,0,1-4.21,6.83,41.21,41.21,0,0,1-4.39,5,15.2,15.2,0,0,1-1.73,1.42,7.26,7.26,0,0,1-1.9,1.11,5.36,5.36,0,0,1-3.41-.19c-3.19-1.16-4.37-4.61-4.65-5.4a9.9,9.9,0,0,1-.47-2.18,10.09,10.09,0,0,1,.38-3.79,12.9,12.9,0,0,1,1.89-4c.43-.64.89-1.22,1.52-2,.24-.31.81-1,1.52-1.8,1.39-1.58,2.58-2.69,2.84-2.93,2.52-2.43,5-7.2,5.31-7.87,3.93-7.78,3.84-16.1,3.79-18.57a46.11,46.11,0,0,0-3.22-15.74c-.39-1-.77-1.93-1.14-2.74A1.1,1.1,0,0,1,185,124a33.69,33.69,0,0,0,13.42.76,27.42,27.42,0,0,0,9-2.94,25.16,25.16,0,0,0,4.46-3.22,24,24,0,0,0,1.8-1.9c3.73-4.38,7.72-9.05,10-15.92a25.28,25.28,0,0,0,1.23-5.12,21.44,21.44,0,0,0-.47-7.67,16.94,16.94,0,0,0-2.08-5.12,17.78,17.78,0,0,0-3.51-4,26.13,26.13,0,0,0-6.35-4.17,25.42,25.42,0,0,0-7.11-2.18,29.07,29.07,0,0,0-6.63-.1,49.3,49.3,0,0,0-9.38,1.42,42.77,42.77,0,0,0-6.07,2.09c-8.55,3.61-22.14,6.81-23.79,7.2a147.6,147.6,0,0,1-29.66,4c-3,.08-5.5,0-7.27,0h0c-1.77,0-4.27.08-7.26,0a147.66,147.66,0,0,1-29.67-4C84,82.7,70.44,79.5,61.89,75.89a44.7,44.7,0,0,0-6.07-2.09,49.46,49.46,0,0,0-9.38-1.42,28.51,28.51,0,0,0-6.63.1,25.78,25.78,0,0,0-7.11,2.18,26.13,26.13,0,0,0-6.35,4.17,17.56,17.56,0,0,0-3.51,4,16.9,16.9,0,0,0-2.08,5.11,21.46,21.46,0,0,0-.48,7.68,25.28,25.28,0,0,0,1.23,5.12c2.33,6.86,6.31,11.54,10,15.92a22.35,22.35,0,0,0,1.8,1.9,24,24,0,0,0,4.45,3.22,27.21,27.21,0,0,0,9,2.94,33.72,33.72,0,0,0,13.42-.76,1.1,1.1,0,0,1,1.27,1.51c-.37.82-.76,1.74-1.14,2.75a46.16,46.16,0,0,0-3.22,15.73c0,2.48-.14,10.8,3.79,18.58.34.67,2.78,5.45,5.31,7.87.26.25,1.45,1.35,2.84,2.93.69.79,1.26,1.5,1.52,1.8.63.78,1.08,1.36,1.51,2a13.12,13.12,0,0,1,1.9,4,10.4,10.4,0,0,1,.38,3.8,10.06,10.06,0,0,1-.48,2.18c-.27.79-1.46,4.25-4.64,5.4a5.31,5.31,0,0,1-3.41.19,7.1,7.1,0,0,1-1.9-1.11,16.57,16.57,0,0,1-1.74-1.42,42.24,42.24,0,0,1-4.39-5.05,62.78,62.78,0,0,1-4.2-6.83c-.2-.36-1.18-2.17-2.37-4.64-1.36-2.83-1.24-2.93-2.08-4.55a23.47,23.47,0,0,0-3.89-5.88,19.89,19.89,0,0,0-4.83-3.69,19.6,19.6,0,0,0-5-2.09,18.34,18.34,0,0,0-12.32,1.33,13.43,13.43,0,0,0-3.7,2.56,13.93,13.93,0,0,0-.76,18.57,14,14,0,0,0,8.81,4.27l.53,0c.38,1.05.68,1.91.85,2.45,1,3,1.15,4.26,2.23,7.59.19.61.34,1.07.66,2,.75,2.2,1.35,3.88,1.47,4.21a64,64,0,0,0,4.22,9,52.16,52.16,0,0,0,7.29,9.76,31.78,31.78,0,0,0,7.49,6.35,29.82,29.82,0,0,0,9.29,3.41,37.93,37.93,0,0,0,4.2.69,1.1,1.1,0,0,1,.23,2.13l-.07,0c-9.55,3.2-12,4.14-15,5.49a36.24,36.24,0,0,0-7.29,4.17,23.48,23.48,0,0,0-5.31,5.5,19.33,19.33,0,0,0-3.41,8.15,14,14,0,0,0,.57,7.77,13.27,13.27,0,0,0,4,5.4A12.77,12.77,0,0,0,46,271.4c.82.13,5.51.84,8.43-1.8,0,0,.89-1,2.65-3a11.9,11.9,0,0,1,2.75-2.66,8.31,8.31,0,0,1,2.84-1c1.65-.24,2.4.23,5.6.76l2.84.38a60.24,60.24,0,0,0,12.6.47,49,49,0,0,0,8-1.32A52.78,52.78,0,0,0,105.39,258a44.16,44.16,0,0,0,8.81-6.16,43.21,43.21,0,0,0,7.48-8.86,1.09,1.09,0,0,1,1.84,0,43.26,43.26,0,0,0,7.49,8.87,43.87,43.87,0,0,0,8.81,6.16,52.75,52.75,0,0,0,13.74,5.12,49.44,49.44,0,0,0,8,1.32,61.06,61.06,0,0,0,12.61-.47l2.84-.38c3.19-.53,3.94-1,5.59-.76a7.91,7.91,0,0,1,2.84,1.05,11.22,11.22,0,0,1,2.75,2.65c1.76,2,2.64,3,2.66,3,2.91,2.64,7.61,1.93,8.43,1.8a12.94,12.94,0,0,0,6.54-3.13,13.45,13.45,0,0,0,4-5.4,14.33,14.33,0,0,0,.57-7.77,19.27,19.27,0,0,0-3.41-8.15,23.89,23.89,0,0,0-5.31-5.5,36.49,36.49,0,0,0-7.3-4.17c-2.93-1.35-5.42-2.29-15-5.49l-.07,0a1.1,1.1,0,0,1,.23-2.13,37.93,37.93,0,0,0,4.2-.69,30,30,0,0,0,9.29-3.41,31.93,31.93,0,0,0,7.48-6.35,52.43,52.43,0,0,0,7.3-9.76,63.35,63.35,0,0,0,4.21-9c.12-.33.73-2,1.48-4.22.3-.92.46-1.38.66-2,1.07-3.33,1.24-4.56,2.22-7.59.18-.54.48-1.4.86-2.46l.52,0a14.06,14.06,0,0,0,8.82-4.27A13.65,13.65,0,0,0,229.57,169Zm-86.15,9.48a23.55,23.55,0,0,1-41.63,0,2,2,0,0,1,2.5-2.84,55.4,55.4,0,0,0,36.63,0A2,2,0,0,1,143.42,178.44Z"/><path class="cls-1" d="M223.92,144.14a.77.77,0,0,0-.26-.25,1.67,1.67,0,0,0,.6-.23,1.33,1.33,0,0,0,.43-.35,1.18,1.18,0,0,0,.28-.47,1.5,1.5,0,0,0,.1-.56,1.55,1.55,0,0,0-.12-.66,1.42,1.42,0,0,0-.38-.5,1.79,1.79,0,0,0-.65-.31,3.28,3.28,0,0,0-.94-.11h-1.62v5.7h.78V144h.59a.5.5,0,0,1,.23,0,.4.4,0,0,1,.15.14l1.48,2a.34.34,0,0,0,.31.16h.68Zm-1-.68h-.8V141.3H223a2,2,0,0,1,.58.07,1,1,0,0,1,.42.19.62.62,0,0,1,.14.14.54.54,0,0,1,.11.18,1.06,1.06,0,0,1,.09.45,1.14,1.14,0,0,1-.09.46,1,1,0,0,1-.26.35,1,1,0,0,1-.43.23A1.76,1.76,0,0,1,222.94,143.46Z"/><path class="cls-1" d="M227.89,139.13a6.23,6.23,0,1,0,1.83,4.41A6.2,6.2,0,0,0,227.89,139.13Zm-.34,8.48a5.76,5.76,0,1,1,1.68-4.07A5.78,5.78,0,0,1,227.55,147.61Z"/></g></svg>