<svg xmlns="http://www.w3.org/2000/svg" viewBox="0 0 366.03 114.88">
  <defs>
    <style>.cls-1{fill:#29bdef;}</style>
  </defs>
  <title>logo c</title>
  <g id="Capa_2" data-name="Capa 2">
    <path
      d="M57.06,50.68a18.19,18.19,0,0,0-4.69-3.39A48.23,48.23,0,0,0,47,45c-1.84-.65-3.63-1.25-5.4-1.79a34.81,34.81,0,0,1-4.69-1.76,11,11,0,0,1-3.32-2.3,4.66,4.66,0,0,1-1.26-3.35,6.36,6.36,0,0,1,2.1-5c1.4-1.24,3.52-1.86,6.38-1.86a13.48,13.48,0,0,1,4.43.67,22.2,22.2,0,0,1,3.45,1.49l2.71,1.49a4.69,4.69,0,0,0,2.24.67,3.15,3.15,0,0,0,1.92-.56A5.68,5.68,0,0,0,57,31l3.79-7.2a22,22,0,0,0-4-3,30.31,30.31,0,0,0-4.81-2.25,31.21,31.21,0,0,0-5.44-1.42,35.77,35.77,0,0,0-5.9-.48A25.91,25.91,0,0,0,31,18.36a21.42,21.42,0,0,0-7.09,4.48,18.83,18.83,0,0,0-4.38,6.37A19,19,0,0,0,18,36.55a21.49,21.49,0,0,0,1.26,7.87,16.17,16.17,0,0,0,3.32,5.32,16.85,16.85,0,0,0,4.67,3.44,38.51,38.51,0,0,0,5.38,2.21C34.49,56,36.28,56.53,38,57a30.4,30.4,0,0,1,4.67,1.69A10,10,0,0,1,46,61.14,5.65,5.65,0,0,1,47.29,65q0,4-2.31,5.9a10,10,0,0,1-6.45,1.86,14.55,14.55,0,0,1-5.33-.88,25.27,25.27,0,0,1-4-1.92L26.09,68a5.1,5.1,0,0,0-2.73-.87,4,4,0,0,0-1.94.5A3.66,3.66,0,0,0,20,68.94L15.5,76.19a23.38,23.38,0,0,0,4.56,3.58,35.62,35.62,0,0,0,5.6,2.78,37,37,0,0,0,6.16,1.81,31.45,31.45,0,0,0,6.26.64,27.27,27.27,0,0,0,10-1.72,21.32,21.32,0,0,0,7.4-4.72,20.4,20.4,0,0,0,4.58-7,23.43,23.43,0,0,0,1.58-8.67,18.15,18.15,0,0,0-1.26-7.13A15.8,15.8,0,0,0,57.06,50.68Z"/>
    <path
      d="M101.15,37.46a3.28,3.28,0,0,0-3.43,2.35l-.59,1.84a25.4,25.4,0,0,0-2.35-2.07A13.64,13.64,0,0,0,92.14,38a13.86,13.86,0,0,0-3.13-1,18.88,18.88,0,0,0-3.84-.37A18.14,18.14,0,0,0,77,38.4a19.05,19.05,0,0,0-6.34,5.13,24,24,0,0,0-4.09,7.77A31.63,31.63,0,0,0,65.12,61a36.39,36.39,0,0,0,1.29,10.14A23.52,23.52,0,0,0,70,78.68a15.56,15.56,0,0,0,5.37,4.7A14.48,14.48,0,0,0,82.09,85a17.69,17.69,0,0,0,7.77-1.6,22.47,22.47,0,0,0,6-4.23v20h14V37.46ZM95.82,69.87A17.66,17.66,0,0,1,94,71.78a10,10,0,0,1-2,1.34,9.31,9.31,0,0,1-2.29.84,11.72,11.72,0,0,1-2.77.29,6.54,6.54,0,0,1-3-.68,5.82,5.82,0,0,1-2.33-2.23,13,13,0,0,1-1.51-4.08A29.78,29.78,0,0,1,79.57,61a26.92,26.92,0,0,1,.68-6.54,13,13,0,0,1,1.87-4.4,7.32,7.32,0,0,1,2.82-2.47,8.25,8.25,0,0,1,3.57-.76,10.27,10.27,0,0,1,3.86.73A9.71,9.71,0,0,1,95.82,50Z"/>
    <path
      d="M146.39,70.82a16,16,0,0,1-3.91,2.67,10,10,0,0,1-4.31,1,5.71,5.71,0,0,1-4.65-1.9,8.17,8.17,0,0,1-1.58-5.37V37.46h-14V67.17a23.39,23.39,0,0,0,1,7.13,16.19,16.19,0,0,0,3.07,5.64,14,14,0,0,0,5,3.73,16.37,16.37,0,0,0,6.8,1.33,18.42,18.42,0,0,0,7.7-1.6,17.72,17.72,0,0,0,3.09-1.81,26.46,26.46,0,0,0,2.8-2.37l.86,2.71a3.28,3.28,0,0,0,3.43,2.35h8.67V37.46h-14Z"/>
    <path
      d="M208.94,63.14a1.87,1.87,0,0,0,1-.8,4.27,4.27,0,0,0,.49-1.58,18.41,18.41,0,0,0,.13-2.58,24.71,24.71,0,0,0-1.56-9,18.9,18.9,0,0,0-4.33-6.75A18.33,18.33,0,0,0,198,38.19a25.7,25.7,0,0,0-18.14.4A21.5,21.5,0,0,0,168,51a24.78,24.78,0,0,0-1.62,8.9,29.53,29.53,0,0,0,1.88,10.93,22.4,22.4,0,0,0,5.11,7.85,21.19,21.19,0,0,0,7.53,4.77,26.53,26.53,0,0,0,9.23,1.6,38.91,38.91,0,0,0,5-.34,27.45,27.45,0,0,0,5.29-1.21A24.82,24.82,0,0,0,205.6,81,20.93,20.93,0,0,0,210.28,77l-4.07-5a2.89,2.89,0,0,0-2.53-1.21,5.21,5.21,0,0,0-2.42.59c-.76.38-1.6.81-2.52,1.3a21.2,21.2,0,0,1-3.15,1.31,13.23,13.23,0,0,1-4.19.59A10.63,10.63,0,0,1,184,71.89q-2.91-2.64-3.58-8.52h27A4.51,4.51,0,0,0,208.94,63.14Zm-28.42-7.89a12,12,0,0,1,3-6.57,8.45,8.45,0,0,1,6.28-2.28,8.83,8.83,0,0,1,3.83.76,7.27,7.27,0,0,1,2.55,2A7.72,7.72,0,0,1,197.57,52a12.54,12.54,0,0,1,.42,3.25Z"/>
    <path
      d="M256.48,63.14a1.85,1.85,0,0,0,1-.8,3.92,3.92,0,0,0,.5-1.58,20.08,20.08,0,0,0,.13-2.58,24.71,24.71,0,0,0-1.55-9,19.17,19.17,0,0,0-4.33-6.75,18.5,18.5,0,0,0-6.64-4.19,25.73,25.73,0,0,0-18.15.4A21.64,21.64,0,0,0,215.53,51a25,25,0,0,0-1.6,8.9,29.13,29.13,0,0,0,1.88,10.93,22.38,22.38,0,0,0,5.1,7.85,21.06,21.06,0,0,0,7.54,4.77,26.41,26.41,0,0,0,9.23,1.6,38.76,38.76,0,0,0,5-.34A27.11,27.11,0,0,0,248,83.45,25.07,25.07,0,0,0,253.14,81,20.93,20.93,0,0,0,257.82,77l-4.07-5a2.89,2.89,0,0,0-2.52-1.21,5.18,5.18,0,0,0-2.42.59c-.77.38-1.61.81-2.53,1.3a21.51,21.51,0,0,1-3.14,1.31,13.38,13.38,0,0,1-4.2.59,10.67,10.67,0,0,1-7.45-2.64q-2.9-2.64-3.56-8.52h27A4.49,4.49,0,0,0,256.48,63.14Zm-28.41-7.89a11.83,11.83,0,0,1,3-6.57,8.43,8.43,0,0,1,6.28-2.28,8.94,8.94,0,0,1,3.84.76,7.14,7.14,0,0,1,2.54,2A7.88,7.88,0,0,1,245.11,52a12.13,12.13,0,0,1,.43,3.25Z"/>
    <path
      d="M292.37,17.84V41.55a17.69,17.69,0,0,0-4.54-2.78,15.7,15.7,0,0,0-6.12-1.07,17.91,17.91,0,0,0-8.17,1.86,18.92,18.92,0,0,0-6.34,5.12,24.06,24.06,0,0,0-4.09,7.77,31.44,31.44,0,0,0-1.44,9.73A36.46,36.46,0,0,0,263,72.32a23.58,23.58,0,0,0,3.55,7.51,15.38,15.38,0,0,0,5.37,4.7,14.43,14.43,0,0,0,6.77,1.63,20.17,20.17,0,0,0,4.45-.48,17.64,17.64,0,0,0,3.84-1.36,18.87,18.87,0,0,0,3.31-2.09,27.68,27.68,0,0,0,2.94-2.71l1.09,3.56a3.06,3.06,0,0,0,1.23,1.76,3.89,3.89,0,0,0,2.19.59h8.68V17.84Zm0,53.19a15.9,15.9,0,0,1-1.84,1.9,9.51,9.51,0,0,1-2,1.35,9.94,9.94,0,0,1-2.28.84,12.43,12.43,0,0,1-2.77.28,6.51,6.51,0,0,1-3-.67,5.72,5.72,0,0,1-2.33-2.24,12.76,12.76,0,0,1-1.52-4.08,30.43,30.43,0,0,1-.54-6.23,27.46,27.46,0,0,1,.68-6.55,13.19,13.19,0,0,1,1.87-4.4,7.35,7.35,0,0,1,2.83-2.47,8.39,8.39,0,0,1,3.56-.76,10.41,10.41,0,0,1,3.86.71,9.25,9.25,0,0,1,3.46,2.45Z"/>
    <path
      d="M347.92,41.08a6.56,6.56,0,0,0-1.48-1.6,8,8,0,0,0-2.13-1.25v.05a9.42,9.42,0,0,0-3.36-.57,11.69,11.69,0,0,0-7,2.3,22.89,22.89,0,0,0-5.78,6.28l-.77-4.38a8.55,8.55,0,0,0-.43-1.54,2.36,2.36,0,0,0-.72-1,3,3,0,0,0-1.17-.57,7.15,7.15,0,0,0-1.74-.18H315V85.43h14V56.72q3.15-5.88,8.66-5.87a13.61,13.61,0,0,1,2.62.2,10.1,10.1,0,0,0,1.73.2h.09a6.48,6.48,0,0,0,4.25-1.19,6.94,6.94,0,0,0,1.55-9Z"/>
  </g>
</svg>
