<?xml version="1.0" encoding="iso-8859-1"?>
<!-- Generator: Adobe Illustrator 19.0.0, SVG Export Plug-In . SVG Version: 6.00 Build 0)  -->
<svg fill="#9da4b3" version="1.1" id="Layer_1"
	xmlns="http://www.w3.org/2000/svg"
	xmlns:xlink="http://www.w3.org/1999/xlink" x="0px" y="0px" viewBox="0 0 512 512" style="enable-background:new 0 0 512 512;" xml:space="preserve">
	<g>
		<g>
			<path d="M507.109,483.499l-80.334-80.334c-0.002-0.002-0.004-0.003-0.006-0.006L108.841,85.23
			c-0.002-0.002-0.003-0.004-0.006-0.006L28.501,4.891c-3.282-3.284-7.702-4.983-12.172-4.886c-1.219,0.027-2.442,0.187-3.645,0.485
			c-0.803,0.198-1.597,0.459-2.376,0.781C4.067,3.855,0,9.943,0,16.696v111.023v289.673v77.913C0,504.525,7.475,512,16.696,512
			h77.913h289.674h111.022c6.753,0,12.84-4.068,15.425-10.307C513.313,495.454,511.884,488.274,507.109,483.499z M33.391,57.003
			L72.32,95.932c-11.613,7.927-24.893,12.948-38.929,14.688V57.003z M77.913,478.609H33.391v-44.522h44.522V478.609z
			 M367.807,478.61H111.304v-61.217c0-9.222-7.475-16.697-16.696-16.697H33.391V144.191c22.959-2.056,44.589-10.456,62.839-24.35
			l295.928,295.929C378.264,434.021,369.863,455.651,367.807,478.61z M401.38,478.609c1.74-14.035,6.761-27.315,14.688-38.93
			l38.93,38.93H401.38z"/>
		</g>
	</g>
	<g>
	</g>
	<g>
	</g>
	<g>
	</g>
	<g>
	</g>
	<g>
	</g>
	<g>
	</g>
	<g>
	</g>
	<g>
	</g>
	<g>
	</g>
	<g>
	</g>
	<g>
	</g>
	<g>
	</g>
	<g>
	</g>
	<g>
	</g>
	<g>
	</g>
</svg>
